<svg width="24" height="24" viewBox="0 0 24 24" fill="none" xmlns="http://www.w3.org/2000/svg">
<path d="M12 22C6.477 22 2 17.523 2 12C2 6.477 6.477 2 12 2C17.523 2 22 6.477 22 12C22 17.523 17.523 22 12 22Z" stroke="black" stroke-width="1.5" stroke-linecap="round" stroke-linejoin="round"/>
<path d="M15.7 7.4V14.35C15.7 15.42 14.83 16.3 13.75 16.3C12.67 16.3 11.8 15.42 11.8 14.35C11.8 13.28 12.67 12.4 13.75 12.4C14.15 12.4 14.53 12.52 14.84 12.73V8.95L9.6 10.02V15.35C9.6 16.42 8.73 17.3 7.65 17.3C6.57 17.3 5.7 16.42 5.7 15.35C5.7 14.28 6.57 13.4 7.65 13.4C8.05 13.4 8.43 13.52 8.74 13.73V8.8L15.7 7.4Z" stroke="black" stroke-width="1.5" stroke-linecap="round" stroke-linejoin="round"/>
</svg>
