<svg width="24" height="24" viewBox="0 0 24 24" fill="none" xmlns="http://www.w3.org/2000/svg">
<rect x="2.75" y="2.75" width="18.5" height="18.5" rx="5" stroke="black" stroke-width="1.5"/>
<path d="M15.9 7.6V14.6C15.9 15.65 15.02 16.5 13.95 16.5C12.88 16.5 12 15.65 12 14.6C12 13.55 12.88 12.7 13.95 12.7C14.36 12.7 14.74 12.83 15.05 13.05V9.1L9.95 10.15V15.6C9.95 16.65 9.07 17.5 8 17.5C6.93 17.5 6.05 16.65 6.05 15.6C6.05 14.55 6.93 13.7 8 13.7C8.41 13.7 8.79 13.83 9.1 14.05V8.95L15.9 7.6Z" fill="black"/>
</svg>
